<?xml version="1.0" encoding="utf-8"?>
<!-- Generator: Adobe Illustrator 28.1.0, SVG Export Plug-In . SVG Version: 6.00 Build 0)  -->
<svg version="1.1" id="Capa_1" xmlns="http://www.w3.org/2000/svg" xmlns:xlink="http://www.w3.org/1999/xlink" x="0px" y="0px"
	 viewBox="0 0 3682.9 627.8" style="enable-background:new 0 0 3682.9 627.8;" xml:space="preserve">
<style type="text/css">
	.st0{fill:#FFFFFF;}
</style>
<g>
	<g>
		<path class="st0" d="M2459.9,129.9l-10.1-14.3c-0.9,0.1-1.9,0.2-2.9,0.2h-11.5V130h-6.7V83.3h18.2c12.1,0,19.5,6.1,19.5,16.2
			c0,7.2-3.7,12.5-10.3,14.7l11.1,15.7H2459.9z M2459.7,99.5c0-6.7-4.5-10.5-13-10.5h-11.4v21h11.4
			C2455.2,110.1,2459.7,106.2,2459.7,99.5z"/>
	</g>
	<path class="st0" d="M2445.8,154.3c-26.4,0-47.9-21.5-47.9-47.9s21.5-47.9,47.9-47.9s47.9,21.5,47.9,47.9
		S2472.3,154.3,2445.8,154.3z M2445.8,64.5c-23.1,0-41.9,18.8-41.9,41.9s18.8,41.9,41.9,41.9s41.9-18.8,41.9-41.9
		S2468.9,64.5,2445.8,64.5z"/>
	<g>
		<path class="st0" d="M878.9,571.4c-20.4-0.3-40.5-2.6-60.5-6.2c-26.2-4.8-51.1-13.4-74.7-25.3c-18.2-9.2-35-20.7-50.7-33.9
			c-19.8-16.8-36.5-36.2-50.1-58c-17-27.1-28.6-56.3-35.3-87.7c-3.7-17.5-6.2-35.1-6.4-53c-0.1-11.2-0.8-22.4,0.2-33.5
			c1.2-12.6,3.5-25.2,6-37.6c4.9-24.5,14.8-47.1,27.5-68.4c8.5-14.1,18.1-27.3,29.2-39.6c13.6-15.1,28.9-28.1,45.3-40.1
			c16.4-11.8,34.1-21.5,52.7-29.5c18.7-8.1,38.1-14.1,58-18.1c10.5-2.1,21.2-3.3,31.8-4.2c12.2-1,24.5-1.9,36.6-1.5
			c11.6,0.4,23.3,2,34.7,3.9c12.4,2,24.9,4.2,36.9,7.7c14,4.2,27.9,9,41.1,15.2c13.6,6.3,26.9,13.6,39.4,21.9s24.1,18,35.5,27.9
			c18.9,16.2,33.8,36,46.6,57.3c9.5,15.7,17.2,32.4,22.4,50c4,13.4,7.7,27.2,9.1,41.1c1.9,17.9,2.3,36,1.7,54
			c-0.8,21.7-4.6,43.1-10.6,64.1c-5.6,19.4-13.2,38.2-22.8,56c-8.2,15.1-17.6,29.3-28.7,42.3c-8.3,9.7-17.7,18.7-27,27.4
			c-16.4,15.3-35.2,27.3-55.1,37.4c-16.4,8.2-33.6,15.2-51.6,19.2c-10.4,2.3-20.8,5-31.1,6.9c-6,1.2-12.1,1.5-18.2,2.1
			C900.1,570,889.5,570.6,878.9,571.4z M1020.1,296.1c-0.4-5.6-0.6-11.1-1.3-16.7c-1.4-13.5-5.8-26.1-11.6-38.3
			c-9.1-18.9-22.6-34.4-38.7-47.5c-14.3-11.5-30.2-19.9-47.8-25.3c-10-3-20.1-5.8-30.8-5.6c-10.2,0.2-20.6-1-30.5,0.5
			c-11,1.6-21.8,5.1-32.4,8.6c-18,6-33.6,16.7-47.5,29.4c-10.9,9.9-19.8,21.7-27.1,34.6c-6,10.6-10.6,22.1-13,34.1
			c-2.3,11.6-3.2,23.5-2.2,35.6c1.4,15.4,4,30.3,9.4,44.8c7.2,19.5,17.8,37,32.4,51.7c15.5,15.6,33.7,27.1,54.6,34.4
			c19.1,6.7,38.7,8.6,58.6,6.9c17.7-1.5,34.4-6.9,50.3-15c17.9-9.2,33-21.7,45.2-37.4C1009.4,363,1019.9,331.2,1020.1,296.1z"/>
		<path class="st0" d="M2447,554.3c-2.2,0-3.5,0-4.9,0c-43.4,0-86.9-0.1-130.3,0.1c-3.4,0-5.1-1-6.2-4.2
			c-6.6-18.4-13.4-36.8-20.2-55.2c-3.4-9.3-7.1-18.4-10.8-27.8c-1.5,0-3,0-4.5,0c-56.8,0-113.5,0.1-170.2-0.1
			c-3.7,0-5.4,1.4-6.6,4.5c-6,15.6-12.2,31.2-18.3,46.8c-4.4,11.2-8.9,22.3-13.2,33.6c-1,2.6-2.7,2.5-4.9,2.5c-21.2,0-42.5,0-63.7,0
			c-22.2,0-44.4,0-66.6,0c-1.4,0-2.9,0-5.1,0c3.5-9.2,6.8-17.7,9.9-26.2c6-15.7,11.8-31.4,17.9-47c5.1-13.3,10.4-26.4,15.5-39.6
			c7.6-19.7,15-39.5,22.6-59.2c9.5-24.5,19-49,28.5-73.5c5.3-13.7,10.3-27.6,15.5-41.3c5.6-14.6,11.5-29.1,17.1-43.8
			c7.2-18.8,14.3-37.7,21.5-56.5c5.1-13.3,10.4-26.4,15.5-39.7c4.5-11.6,8.8-23.4,13.3-35c5-12.9,9.8-25.7,14.9-38.6
			c1.1-2.8,3.5-3,6.1-3c28.2,0.1,56.5,0,84.7,0c16.1,0,32,0.1,48.1-0.1c3.7-0.1,5.6,1.3,6.8,4.7c5.6,15.4,11.3,30.8,17.1,46.1
			c5.1,13.4,10.3,26.7,15.3,40.1c6,15.8,11.7,31.6,17.6,47.4c5.1,13.3,10.2,26.5,15.2,39.8c5.4,14.3,10.6,28.7,16,43
			c5.6,14.8,11.4,29.5,17,44.3c5.4,14.3,10.6,28.7,15.9,43c5,13.2,10.1,26.3,15.1,39.5c9.5,25.1,18.9,50.3,28.4,75.3
			c5.8,15.3,11.6,30.8,17.5,46.1C2438.5,531.4,2442.6,542.4,2447,554.3z M2186,207.2c-0.9,1.5-1.5,2.3-1.8,3.2
			c-2.7,7.9-5.5,15.8-8.1,23.8c-7.5,22.5-15,44.9-22.5,67.3c-6.8,20.2-13.7,40.5-20.5,60.7c-1.5,4.6-1.4,4.6,3.2,4.6
			c32.6,0,65.1,0,97.8,0c1.4,0,2.9,0,5.2,0C2221.4,313.5,2203.9,260.8,2186,207.2z"/>
		<path class="st0" d="M301.8,396.4c0,2.7,0,5,0,7.1c0,48.3,0,96.4,0,144.7c0,6,0,6-6.1,6c-37,0-74,0-111,0c-6.1,0-6.1,0-6.1-6
			c0-163.9,0-327.8,0-491.7c0-1.4,0-2.7,0-4.8c2.1,0,4,0,5.9,0c60.7,0,121.4-0.2,182.2,0.2c13.3,0.1,26.4,2.3,39.7,3.1
			c13.4,0.8,26.3,3.6,39.1,7.2c15.6,4.4,30.2,10.8,43.5,20.1c16.4,11.5,30.3,25.5,41.1,42.6c8.7,13.6,15.1,28.3,19.1,43.9
			c3.7,14,6.7,28.2,6.1,42.9c-0.5,11.4,0.2,22.9-1.1,34.2c-1.2,10.5-3.7,20.8-6.5,30.9c-4.7,17.8-12,34.5-22.2,49.8
			c-6.9,10.3-14.8,19.6-24.5,27.2c-7.2,5.6-14,11.7-21.7,16.5c-14.5,9.2-30.3,15.4-47.1,19.4c-14.3,3.4-28.8,5.6-43.6,5.7
			c-27,0.1-54,0.5-80.9,0.8C305.8,396.4,304,396.4,301.8,396.4z M301.8,164.5c0,1.9,0,3.3,0,4.8c0,24.5,0,49.1-0.1,73.6
			c0,1.7-0.5,4.1-1.7,5.1c-11.1,9.2-22.4,18.1-33.6,27.2c-3.1,2.5-5.9,5.3-9.6,8.6c1.8,0,2.4,0,3.2,0c34.1,0,68.2,0.3,102.3-0.1
			c11.6-0.1,23.3-1.6,34.4-5.7c13.4-4.9,24.2-12.9,30.6-26.3c6-12.7,6.1-26.2,4.6-39.5c-0.7-6.4-2.9-13.1-5.8-18.9
			c-6.1-12.2-17.1-18.9-29.7-23.2c-13.6-4.7-27.8-4.8-41.9-5.4c-14.5-0.7-29.1-0.2-43.6-0.2C308.2,164.5,305.2,164.5,301.8,164.5z"
			/>
		<path class="st0" d="M1544.8,80c-17.3,33.7-34.5,67.3-51.6,100.9c-8-5.2-15.7-10.6-23.7-15.2c-13.9-8.2-28.8-13.8-44.8-15.8
			c-7.6-0.9-15.2-2-22.7-1.5c-16.2,1.1-31.1,6.2-42.5,18.5c-11.6,12.6-12,30.9-1.2,44c6.9,8.4,15.9,14.3,26,17.8
			c21.4,7.4,43,13.9,64.5,20.8c25.3,8.2,49.7,18.2,70.7,34.8c20.2,15.9,34.5,36,41.1,61.1c3,11.2,5.1,22.6,4.5,34.3
			c-0.6,13.8-0.3,27.6-2,41.3c-1.5,12.2-4.7,24.2-8.1,36c-4.5,15.3-11.9,29.4-21.6,42.2c-9.8,13.2-21.6,24.4-35.5,32.8
			c-12.5,7.5-25.5,14.6-39,20.2c-16.8,6.9-34.6,10.8-52.8,13.2c-15.9,2.1-31.8,2.9-47.7,2.2c-11.5-0.5-23-2-34.4-4.1
			c-13-2.3-26.2-4.9-38.7-8.8c-15.3-4.9-30.6-10.5-45-17.4c-15.9-7.6-30.9-17.1-46.9-26.1c19.1-36.1,37.8-71.1,56.5-106.3
			c8.2,6.3,15.8,12.5,23.8,18.3c18.8,13.4,38.8,24.3,61.6,29.7c10.6,2.5,21.4,4.2,32.3,3.9c18-0.5,34.6-5.1,48.1-17.5
			c5.8-5.4,9.7-12.4,11.8-20.1c2.4-9,2.5-18-1.4-26.7c-3.5-7.8-9.1-13.8-15.9-18.8c-14.2-10.4-30.6-15.3-47-20.5
			c-19.1-6-38.3-11.8-57.4-17.8c-15.1-4.7-29.2-11.5-42.4-20c-15.1-9.8-27.3-22.5-35.5-38.6c-7.1-14-11.2-29-12.4-44.7
			c-0.7-10-1.7-20.1-1.4-30.2c0.3-9.3,1.9-18.6,3-27.9c2.2-17.9,8.5-34.4,16.5-50.3c7.5-14.9,17.9-27.5,29.7-39.2
			c15.9-15.6,34.6-26.8,55.3-34.2c11.6-4.2,23.8-7.5,36.1-9.3c12.9-1.9,26.1-1.5,39.2-1.9c17.4-0.5,34.6,1.8,51.4,5.7
			c16.5,3.7,33.1,7.3,49.1,12.8s31.1,13.3,46.6,20.1C1542.2,77.9,1543.3,78.9,1544.8,80z"/>
		<path class="st0" d="M1720.5,162.8c-2.8,0-5,0-7.1,0c-31.8,0-63.6,0-95.4,0c-5.1,0-5.1-0.2-5.1-5.4c0-33.7,0-67.4-0.1-101.1
			c0-3.7,0.8-5.2,5.1-5.2c112.2,0.1,224.5,0.1,336.7,0c4.2,0,5.3,1,5.3,5.2c-0.2,33.8-0.2,67.7,0,101.6c0,3.9-0.9,5.1-5.1,5.1
			c-32.5-0.2-65-0.1-97.4-0.1c-1.6,0-3.2,0-5.2,0c0,130.5,0,260.7,0,391.5c-1.9,0-3.5,0-5.1,0c-40.1,0-80,0-120.1,0
			c-6.5,0-6.5,0-6.5-6.6c0-115.1,0-230.2,0-345.4C1720.5,189.3,1720.5,176.3,1720.5,162.8z"/>
	</g>
	<g>
		<path class="st0" d="M2487.7,391.8h73.8c51.7,0,87.2,30.1,87.2,78s-35.4,78-87.2,78h-73.8V391.8z M2559.7,512.6
			c26.5,0,44.4-15.8,44.4-42.8s-17.8-42.8-44.4-42.8h-27.9v85.6H2559.7z"/>
		<path class="st0" d="M2796.9,427.1v120.8h-40.3V535c-9.1,10-22.1,14.9-35.9,14.9c-29.6,0-51.3-16.9-51.3-55.3v-67.5h42.4v60.6
			c0,18.7,7.4,26.1,20.1,26.1c12.5,0,22.7-8.2,22.7-28.5v-58.2L2796.9,427.1L2796.9,427.1z"/>
		<path class="st0" d="M2905,425v38.1c-3.8-0.4-6.5-0.7-9.6-0.7c-17.2,0-29,8.7-29,29.9v55.5H2824V427.1h40.3v14.5
			C2873.1,430.6,2887.1,425,2905,425z"/>
		<path class="st0" d="M3034.7,480.8v67.1h-39.5v-15.6c-6,11.6-18.1,17.6-35.7,17.6c-29,0-45-16.3-45-37.2
			c0-22.3,16.3-36.1,53.7-36.1h24.1c-0.7-12.3-8.9-19.2-25.6-19.2c-11.6,0-24.5,4-32.8,10.5l-14.3-28.8c13.8-9.1,34.3-14,53.3-14
			C3012.2,425,3034.7,442.4,3034.7,480.8z M2992.4,509.1v-10.5h-18.3c-13.6,0-18.5,4.9-18.5,12.3c0,7.1,5.8,12.3,15.8,12.3
			C2980.8,523.1,2989,518.7,2992.4,509.1z"/>
		<path class="st0" d="M3190.1,478.8v69.1h-42.4v-62.2c0-17.4-7.6-24.7-19.8-24.7c-13.6,0-24.1,8.5-24.1,28.5v58.4h-42.4V427.1h40.3
			v13.2c9.6-10,23.2-15.2,38.3-15.2C3168.4,425,3190.1,441.3,3190.1,478.8z"/>
		<path class="st0" d="M3348.3,427.1v98.7c0,45.7-25.9,67.3-70.9,67.3c-23.2,0-45.2-5.3-60-15.8l15.4-29.6c10,8,26.5,12.9,40.8,12.9
			c22.7,0,32.3-10.3,32.3-29.2v-4c-8.2,9.6-20.5,14.3-35.9,14.3c-32.1,0-59.3-22.7-59.3-58.4c0-35.4,27.2-58.2,59.3-58.2
			c16.7,0,29.6,5.3,37.9,16.7v-14.7H3348.3z M3306.4,483.2c0-14.7-11.1-24.5-26.3-24.5s-26.5,9.8-26.5,24.5s11.4,24.7,26.5,24.7
			S3306.4,497.9,3306.4,483.2z"/>
		<path class="st0" d="M3367.9,487.2c0-36.3,28.8-62.2,68.2-62.2c39.9,0,68.2,25.9,68.2,62.2c0,36.6-28.3,62.6-68.2,62.6
			C3396.7,549.9,3367.9,523.8,3367.9,487.2z M3461.6,487.2c0-18.3-10.9-28.5-25.4-28.5c-14.3,0-25.4,10.3-25.4,28.5
			c0,18.5,11.1,29,25.4,29C3450.6,516.2,3461.6,505.7,3461.6,487.2z"/>
	</g>
</g>
</svg>
